<mxfile host="app.diagrams.net" modified="2023-07-07T09:18:54.183Z" agent="Mozilla/5.0 (Windows NT 10.0; Win64; x64; rv:109.0) Gecko/20100101 Firefox/117.0" version="21.6.1" etag="U1OWtEBzPpvsC-HceCDG" type="github">
  <diagram name="Page-1" id="kPPFRaF9VMyvjgiS925B">
    <mxGraphModel>
      <root>
        <mxCell id="0" />
        <mxCell id="1" parent="0" />
      </root>
    </mxGraphModel>
  </diagram>
</mxfile>
